<svg id="Capa_1" enable-background="new 0 0 512 512" height="512" viewBox="0 0 512 512" width="512" xmlns="http://www.w3.org/2000/svg"><g><g><g><g><path d="m256.009 512c1.631 0 3.289-.292 4.902-.908 7.174-2.739 14.592-5.572 20.753-9.492 12.128-7.719 14.674-17.123 14.674-23.654s-2.546-15.936-14.676-23.654c-6.16-3.92-13.579-6.753-20.754-9.492-4.75-1.814-12.924-4.935-16.563-7.454 3.64-2.52 11.813-5.64 16.563-7.453 7.175-2.739 14.594-5.572 20.754-9.491 12.13-7.718 14.676-17.123 14.676-23.653s-2.546-15.935-14.676-23.654c-6.16-3.92-13.579-6.752-20.754-9.491-4.75-1.813-12.922-4.933-16.562-7.452 3.641-2.52 11.812-5.639 16.562-7.452 7.175-2.739 14.594-5.572 20.754-9.491 12.13-7.718 14.676-17.123 14.676-23.653 0-6.531-2.546-15.935-14.676-23.653-6.16-3.92-13.579-6.752-20.754-9.491-4.749-1.813-12.919-4.932-16.559-7.451 3.642-2.518 11.811-5.637 16.559-7.449 7.175-2.738 14.594-5.57 20.754-9.49 12.131-7.718 14.677-17.122 14.677-23.652 0-17.522-17.188-25.422-22.837-28.018-2.278-1.047-3.75-3.34-3.75-5.84v-67.002c0-7.594-6.156-13.75-13.75-13.75s-13.75 6.156-13.75 13.75v67.002c0 13.208 7.759 25.308 19.767 30.828 2.797 1.286 4.537 2.314 5.605 3.055-3.66 2.514-11.79 5.617-16.522 7.424-7.175 2.738-14.595 5.57-20.754 9.49-12.131 7.718-14.677 17.122-14.677 23.652s2.546 15.935 14.676 23.653c6.161 3.92 13.579 6.752 20.754 9.491 4.75 1.813 12.921 4.933 16.561 7.452-3.64 2.519-11.812 5.638-16.561 7.452-7.175 2.739-14.594 5.571-20.754 9.491-12.131 7.718-14.677 17.123-14.677 23.653s2.546 15.935 14.676 23.654c6.161 3.92 13.579 6.752 20.754 9.491 4.75 1.813 12.921 4.933 16.562 7.453-3.64 2.519-11.812 5.639-16.562 7.452-7.175 2.739-14.594 5.572-20.754 9.491-12.13 7.718-14.676 17.123-14.676 23.653s2.546 15.936 14.676 23.654c6.16 3.92 13.578 6.753 20.754 9.492 4.751 1.814 12.926 4.936 16.565 7.455-3.639 2.52-11.812 5.641-16.562 7.454-7.094 2.709-10.649 10.656-7.94 17.751 2.09 5.479 7.308 8.847 12.846 8.847z" fill="#cbe5e7"/><path d="m260.904 348.696c-4.749 1.813-12.919 4.935-16.555 7.458 3.637 2.514 11.806 5.635 16.555 7.448 7.18 2.74 14.598 5.573 20.758 9.488 12.125 7.726 14.68 17.122 14.68 23.653s-2.555 15.937-14.68 23.653c-6.16 3.925-13.578 6.758-20.758 9.498-4.749 1.813-12.919 4.935-16.555 7.448 3.637 2.524 11.806 5.645 16.555 7.458 7.18 2.74 14.598 5.573 20.758 9.488 12.125 7.716 14.68 17.122 14.68 23.653s-2.555 15.937-14.68 23.653c-6.16 3.925-13.578 6.758-20.748 9.498-1.617.618-3.276.907-4.904.907-5.542 0-10.755-3.369-12.846-8.849-.031-.072-.051-.144-.082-.216l9.179-1.473c6.686-2.555 13.609-5.192 18.883-8.551 6.573-4.183 9.91-9.22 9.91-14.968 0-5.738-3.338-10.776-9.91-14.958-5.275-3.358-12.197-6.006-18.904-8.561-3.564-1.37-7.18-2.771-10.436-4.213-3.255-1.442-6.16-2.905-8.303-4.399-2.967-2.05-4.44-5.254-4.44-8.468 0-3.204 1.473-6.418 4.44-8.468 4.306-2.977 11.62-5.882 18.749-8.602 6.696-2.565 13.619-5.202 18.894-8.561 6.573-4.183 9.91-9.22 9.91-14.969 0-5.738-3.338-10.776-9.91-14.958-5.275-3.358-12.197-6.006-18.894-8.561-3.564-1.36-7.17-2.771-10.436-4.203-3.255-1.442-6.16-2.915-8.314-4.399-2.967-2.05-4.44-5.264-4.44-8.468 0-3.214 1.473-6.428 4.44-8.478 4.306-2.977 11.62-5.882 18.76-8.602 6.686-2.555 13.609-5.202 18.883-8.561 6.573-4.183 9.91-9.21 9.91-14.958s-3.338-10.776-9.91-14.958c-5.275-3.358-12.197-6.006-18.904-8.561-3.554-1.36-7.17-2.761-10.425-4.203s-6.16-2.905-8.314-4.399c-2.967-2.05-4.44-5.264-4.44-8.478s1.473-6.428 4.44-8.468c4.306-2.977 11.62-5.882 18.749-8.602 6.696-2.555 13.609-5.192 18.894-8.561 6.573-4.183 9.91-9.21 9.91-14.958 0-9.725-9.086-15.102-16.957-18.708-5.903-2.699-9.632-8.654-9.632-15.144v-80.663c.505-.062 1.02-.093 1.535-.093 7.592 0 13.753 6.16 13.753 13.753v67.003c0 2.493 1.473 4.79 3.75 5.831 5.645 2.606 22.839 10.498 22.839 28.021 0 6.531-2.555 15.937-14.68 23.653-6.16 3.925-13.578 6.748-20.758 9.488-4.749 1.813-12.919 4.935-16.555 7.448 3.637 2.524 11.806 5.645 16.555 7.458 7.18 2.74 14.598 5.563 20.758 9.488 12.125 7.716 14.68 17.122 14.68 23.653s-2.555 15.937-14.68 23.653c-6.16 3.914-13.577 6.747-20.757 9.488z" fill="#a9d3d8"/></g></g><g><path d="m280.421 76.644v47.97c0 5.069-4.107 9.167-9.167 9.167h-30.507c-5.06 0-9.167-4.098-9.167-9.167v-47.97z" fill="#7da2b0"/><path d="m280.421 76.644v35.302c-8.507.257-16.73.385-24.421.385s-15.914-.128-24.421-.385v-35.302z" fill="#688d97"/><path d="m425.749.003c-6.141 0-12.647 2.603-18.4 6.767-8.832 6.392-19.944 8.746-30.716 7.066-33.618-5.242-83.351-8.335-120.633-8.335s-87.015 3.093-120.633 8.335c-10.773 1.68-21.884-.674-30.716-7.066-5.752-4.163-12.259-6.766-18.4-6.766-11.743 0-21.262 9.519-21.262 21.262v55.813c0 11.743 9.519 21.262 21.262 21.262 6.141 0 12.647-2.603 18.4-6.766 8.833-6.392 19.944-8.746 30.716-7.066 33.618 5.242 83.351 8.335 120.633 8.335s87.015-3.093 120.633-8.335c10.773-1.68 21.884.674 30.716 7.066 5.753 4.163 12.259 6.767 18.4 6.767 11.743 0 21.262-9.519 21.262-21.262v-55.815c0-11.742-9.519-21.262-21.262-21.262z" fill="#ffd496"/><path d="m425.752 0c-5.179 0-10.615 1.852-15.639 4.923 4.684 3.905 7.663 9.781 7.663 16.345v39.336c0 5.336-6.113 8.178-10.333 4.914-.033-.026-.066-.05-.099-.074-8.828-6.398-19.938-8.745-30.709-7.068-33.624 5.243-83.355 8.333-120.636 8.333s-87.012-3.089-120.636-8.333c-10.771-1.678-21.881.669-30.709 7.068-2.878 2.081-5.94 3.777-9.057 4.941-3.117 1.173-6.279 1.824-9.35 1.824-11.743 0-21.258-9.524-21.258-21.267v26.135c0 11.743 9.515 21.267 21.258 21.267 3.071 0 6.233-.651 9.35-1.824s6.178-2.86 9.057-4.941c8.828-6.398 19.938-8.745 30.709-7.068 33.624 5.243 83.355 8.333 120.636 8.333s87.012-3.089 120.636-8.333c10.771-1.678 21.881.669 30.709 7.068 5.757 4.162 12.265 6.765 18.407 6.765 5.867 0 11.184-2.383 15.034-6.233 3.85-3.841 6.224-9.158 6.224-15.034v-55.81c.002-11.743-9.514-21.267-21.257-21.267z" fill="#fcc16d"/></g></g><g><path d="m313.474 37.365c-.309 13.681-14.412 25.136-44.349 36.046-16.627 6.057-38.467 12.012-65.303 17.812h-.01c-19.563-1.123-39.178-2.812-56.104-4.976 51.406-8.798 90.388-17.977 116.122-27.351 32.337-11.785 34.161-20.305 34.202-21.891.021-1.051-.814-10.621-37.2-23.457-9.024-3.194-18.131-5.81-25.548-7.757 7.191-.196 14.144-.288 20.717-.288 8.592 0 17.853.165 27.413.484 20.458 9.507 30.328 19.84 30.06 31.378z" fill="#fcc16d"/></g><g><path d="m286.617 66.107c-5.079 2.472-10.899 4.904-17.492 7.304-16.627 6.057-38.467 12.012-65.313 17.812-19.563-1.123-39.178-2.812-56.114-4.976 37.385-6.397 68.198-12.991 92.119-19.728 5.584.124 11.002.185 16.184.185 9.549 0 19.912-.206 30.616-.597z" fill="#fcb44d"/></g><g><path d="m407.859 38.982c-.68 14.608-15.319 26.898-46.049 38.673-11.27 4.316-24.827 8.571-40.599 12.733-.01 0-.021.01-.031.01-22.396 1.586-45.513 2.442-65.18 2.442-6.057 0-12.455-.082-19.048-.247 52.683-9.333 92.727-19.182 119.326-29.37 33.048-12.651 36.015-22.303 36.139-24.951.422-8.983-19.481-19.955-40.239-27.599 8.736.937 16.998 1.999 24.456 3.163 5.223.814 10.528.68 15.618-.402 10.899 7.942 16.029 16.39 15.607 25.548z" fill="#fcc16d"/></g><g><path d="m395.744 59.678c-7.582 6.253-18.811 12.177-33.934 17.977-11.27 4.316-24.827 8.561-40.589 12.733-.01 0-.031.01-.041.01-22.396 1.586-45.513 2.442-65.18 2.442-6.057 0-12.445-.082-19.038-.247 52.673-9.333 92.716-19.182 119.316-29.37 2.709-1.04 5.223-2.06 7.541-3.049h.01c4.471-.577 8.757-1.174 12.805-1.803 6.439-1 12.991-.568 19.11 1.307z" fill="#fcb44d"/></g><g><path d="m185.219 45.446h-15.93c-4.267 0-7.726-3.459-7.726-7.726s3.459-7.726 7.726-7.726h15.93c4.267 0 7.726 3.459 7.726 7.726s-3.459 7.726-7.726 7.726z" fill="#fcc16d"/></g></g></svg>