<?xml version="1.0" encoding="iso-8859-1"?>
<!-- Generator: Adobe Illustrator 19.0.0, SVG Export Plug-In . SVG Version: 6.00 Build 0)  -->
<svg version="1.1" id="Capa_1" xmlns="http://www.w3.org/2000/svg" xmlns:xlink="http://www.w3.org/1999/xlink" x="0px" y="0px"
	 viewBox="0 0 512 512" style="enable-background:new 0 0 512 512;" xml:space="preserve">
<rect x="183.917" y="179.554" transform="matrix(0.7071 0.7071 -0.7071 0.7071 220.3416 -104.8112)" style="fill:#717F88;" width="105.544" height="68.033"/>
<rect x="169.151" y="215.174" transform="matrix(0.7071 0.7071 -0.7071 0.7071 226.4494 -90.0488)" style="fill:#5D6970;" width="105.544" height="26.3"/>
<path style="fill:#B58058;" d="M291.881,205.171L498.85,412.139c17.788,17.788,17.53,46.893-0.774,64.354
	c-17.771,16.945-46.05,16.015-63.416-1.351L228.284,268.766c-2.986-2.986-2.986-7.822,0-10.808l2.341-2.341l48.106-48.106
	l2.341-2.341C284.059,202.184,288.894,202.184,291.881,205.171z"/>
<path style="fill:#8E6047;" d="M452.423,457.379L246.047,251.004c-2.986-2.986-2.986-7.823,0-10.809l-15.423,15.423l-2.341,2.341
	c-2.986,2.986-2.986,7.823,0,10.809l206.375,206.375c17.366,17.367,45.645,18.296,63.416,1.351
	c3.448-3.289,6.255-6.992,8.422-10.956C489.219,474.938,466.986,471.942,452.423,457.379z"/>
<path style="fill:#717F88;" d="M355.415,39.309c-43.969,19.519-93.581,64.679-111.835,96.266l-49.376,27.627l-31.346-21.942
	l26.448-59.999l0.021-0.021c12.466-12.476,21.525-21.535,22.507-22.507C248.846,21.723,307.454,11.138,355.415,39.309z"/>
<g>
	<path style="fill:#5D6970;" d="M355.415,39.309c-43.969,19.519-93.581,64.679-111.835,96.266l-17.178-17.178l-3.03-3.041
		c2.215-4.786,3.615-7.816,3.897-8.422C249.295,59.455,300.683,29.351,355.415,39.309z"/>
	<path style="fill:#5D6970;" d="M95.119,151.953l66.957,16.736l11.51,61.73l-1.824,2.737c-10.766-5.361-25.921-2.082-36.893,8.89
		c-10.904,10.904-14.209,25.946-8.967,36.695l-1.17,0.534l-58.258-11.847l-20.209-66.621l0.585-1.274
		c10.731,5.052,25.602,1.713,36.411-9.096c10.989-10.989,14.268-26.196,8.856-36.962L95.119,151.953z"/>
</g>
<path style="fill:#717F88;" d="M46.85,199.534l-0.585,1.274l78.468,78.468l1.17-0.534c0.998,2.066,2.324,3.976,3.959,5.662
	l-40.835,40.835L0,236.212l40.835-40.835C42.616,197.124,44.638,198.51,46.85,199.534z"/>
<path style="fill:#5D6970;" d="M106.096,258.779l-0.829,1.03l23.085,23.085l0.946-0.759c-0.083,0.984,0.1,1.752,0.563,2.267
	l-40.835,40.835l-26.191-26.191l40.835-40.835C104.206,258.715,105.026,258.897,106.096,258.779z"/>
<path style="fill:#717F88;" d="M160.73,75.481c6.305-6.305,16.528-6.3,22.827,0.011l5.752,5.764l37.091,37.142l17.177,17.177
	l6.148,6.148c6.301,6.301,6.301,16.515,0,22.815l-6.983,6.983l-0.008-0.008l-48.106,48.106l0.008,0.008l-17.401,17.401
	c-1.644-1.592-3.486-2.883-5.473-3.872l1.824-2.737l-78.468-78.468l-3.003,1.523c-0.998-1.997-2.306-3.838-3.907-5.473
	L160.73,75.481z"/>
<g>
</g>
<g>
</g>
<g>
</g>
<g>
</g>
<g>
</g>
<g>
</g>
<g>
</g>
<g>
</g>
<g>
</g>
<g>
</g>
<g>
</g>
<g>
</g>
<g>
</g>
<g>
</g>
<g>
</g>
</svg>
