<?xml version="1.0" encoding="iso-8859-1"?>
<!-- Generator: Adobe Illustrator 27.2.0, SVG Export Plug-In . SVG Version: 6.00 Build 0)  -->
<svg version="1.1" id="Capa_1" xmlns="http://www.w3.org/2000/svg" xmlns:xlink="http://www.w3.org/1999/xlink" x="0px" y="0px"
	 viewBox="0 0 510 510" style="enable-background:new 0 0 510 510;" xml:space="preserve">
<g>
	<g>
		<rect x="104.116" y="10" style="fill:#6A64FB;" width="300.772" height="449.093"/>
	</g>
	<g>
		<rect x="104.116" y="369.475" style="fill:#FFCC43;" width="300.772" height="89.617"/>
	</g>
	<g>
		<g>
			<rect x="145.445" y="50.875" style="fill:#CFDDFE;" width="219.106" height="159.35"/>
		</g>
		<g>
			<path style="fill:#85B3F7;" d="M364.555,147.614v62.61h-219.11V50.874h32.75C159.58,157.06,289.569,223.358,364.555,147.614z"/>
		</g>
		<g>
			<rect x="145.445" y="211.179" style="fill:#CFDDFE;" width="219.106" height="159.35"/>
		</g>
		<g>
			<path style="fill:#85B3F7;" d="M364.555,307.919v62.61h-219.11v-159.35h32.75C159.58,317.364,289.569,383.662,364.555,307.919z"
				/>
		</g>
	</g>
	<g>
		<rect x="144.451" y="459.093" style="fill:#85B3F7;" width="50.793" height="40.907"/>
	</g>
	<g>
		<rect x="314.258" y="459.093" style="fill:#85B3F7;" width="50.793" height="40.907"/>
	</g>
</g>
<g>
	<g>
		<path style="fill:#FFFFFF;" d="M325.214,340.099H225.62c-13.223-0.477-13.272-19.502,0-20c0,0,99.594,0,99.594,0
			C338.437,320.576,338.486,339.601,325.214,340.099z"/>
	</g>
	<g>
		<path style="fill:#FFFFFF;" d="M325.214,260.279H225.62c-13.223-0.477-13.272-19.502,0-20c0,0,99.594,0,99.594,0
			C338.437,240.756,338.486,259.781,325.214,260.279z"/>
	</g>
	<g>
		<path style="fill:#FFFFFF;" d="M325.214,180.459H225.62c-13.223-0.477-13.272-19.502,0-20c0,0,99.594,0,99.594,0
			C338.437,160.937,338.486,179.962,325.214,180.459z"/>
	</g>
	<g>
		<path style="fill:#FFFFFF;" d="M325.214,100.64H225.62c-13.223-0.477-13.272-19.502,0-20c0,0,99.594,0,99.594,0
			C338.437,81.117,338.486,100.142,325.214,100.64z"/>
	</g>
	<g>
		<path style="fill:#002678;" d="M405.386,0H104.614c-5.522,0-10,4.477-10,10v449.093c0,5.523,4.478,10,10,10h30.833V500
			c0,5.523,4.478,10,10,10h49.797c5.522,0,10-4.477,10-10v-30.907h99.512V500c0,5.523,4.478,10,10,10h49.797c5.522,0,10-4.477,10-10
			v-30.907h30.833c5.522,0,10-4.477,10-10V10C415.386,4.477,410.908,0,405.386,0z M395.386,20v339.903h-19.837
			c-0.003-96.838,0.002-212.282,0-309.173c0-5.523-4.478-10-10-10c0,0-221.098,0-221.098,0c-5.522,0-10,4.477-10,10
			c0.025,96.813-0.018,212.424,0,309.173h-19.837V20H395.386z M355.549,200.369H154.451v-59.82h201.098V200.369z M154.451,220.369
			h201.098v59.82H154.451V220.369z M355.549,120.549H154.451V60.729h201.098V120.549z M154.451,300.188h201.098v59.714H154.451
			V300.188z M185.244,490h-29.797v-20.907h29.797V490z M354.553,490h-29.797v-20.907h29.797V490z M114.614,449.093v-69.19
			c12.655,0.006,261.579-0.003,280.771,0v69.19H114.614z"/>
		<path style="fill:#002678;" d="M195.59,328.14c-1.156-6.8-9.736-10.336-15.36-6.36c-7.348,4.767-5.022,16.538,3.601,18.12
			C190.55,341.46,197.135,334.86,195.59,328.14z"/>
		<path style="fill:#002678;" d="M195.59,248.32c-1.154-6.798-9.741-10.344-15.36-6.36c-7.348,4.767-5.022,16.537,3.601,18.12
			C190.549,261.64,197.135,255.04,195.59,248.32z"/>
		<path style="fill:#002678;" d="M176.55,174.28c2.432,6.459,11.568,8.263,16.3,3.25c5.647-5.368,2.568-15.532-5.11-16.87
			C180.141,158.943,173.377,167.16,176.55,174.28z"/>
		<path style="fill:#002678;" d="M176.55,94.46c2.434,6.46,11.567,8.269,16.3,3.25c5.652-5.382,2.561-15.515-5.11-16.88
			C180.14,79.134,173.379,87.332,176.55,94.46z"/>
	</g>
	<g>
		<g>
			<path style="fill:#FFFFFF;" d="M168.022,429.224c-5.522,0-10-4.477-10-10v-9.959c0.489-13.248,19.511-13.249,20,0
				c0,0,0,9.959,0,9.959C178.022,424.747,173.545,429.224,168.022,429.224z"/>
		</g>
		<g>
			<path style="fill:#FFFFFF;" d="M211.511,429.224c-5.522,0-10-4.477-10-10v-9.959c0.489-13.248,19.511-13.249,20,0
				c0,0,0,9.959,0,9.959C221.511,424.747,217.033,429.224,211.511,429.224z"/>
		</g>
		<g>
			<path style="fill:#FFFFFF;" d="M255,429.224c-5.522,0-10-4.477-10-10v-9.959c0.489-13.248,19.511-13.249,20,0
				c0,0,0,9.959,0,9.959C265,424.747,260.522,429.224,255,429.224z"/>
		</g>
		<g>
			<path style="fill:#FFFFFF;" d="M298.489,429.224c-5.522,0-10-4.477-10-10v-9.959c0.489-13.248,19.511-13.249,20,0
				c0,0,0,9.959,0,9.959C308.489,424.747,304.012,429.224,298.489,429.224z"/>
		</g>
		<g>
			<path style="fill:#FFFFFF;" d="M341.978,429.224c-5.522,0-10-4.477-10-10v-9.959c0.489-13.248,19.511-13.249,20,0
				c0,0,0,9.959,0,9.959C351.978,424.747,347.5,429.224,341.978,429.224z"/>
		</g>
	</g>
</g>
<g>
</g>
<g>
</g>
<g>
</g>
<g>
</g>
<g>
</g>
<g>
</g>
<g>
</g>
<g>
</g>
<g>
</g>
<g>
</g>
<g>
</g>
<g>
</g>
<g>
</g>
<g>
</g>
<g>
</g>
</svg>
