<svg width="212" height="28" viewBox="0 0 212 28" fill="none" xmlns="http://www.w3.org/2000/svg">
<path fill-rule="evenodd" clip-rule="evenodd" d="M42.5847 13.8542H48.8882C48.4685 12.2528 47.3185 11.6035 45.9179 11.6035C44.3778 11.6035 43.1437 12.4429 42.5847 13.8542M52.5863 16.5927H42.3611C42.7808 18.6553 44.517 19.4153 46.0295 19.4153C47.9346 19.4153 48.749 18.2756 48.749 18.2756H52.2783C51.213 20.9877 48.6646 22.4787 45.9179 22.4787C42.1353 22.4787 38.8297 19.6848 38.8297 15.4551C38.8297 11.25 42.1078 8.646 45.8059 8.646C49.3924 8.646 53.0358 11.0598 52.5863 16.5927" fill="white"/>
<path fill-rule="evenodd" clip-rule="evenodd" d="M87.3226 15.5633C87.3226 13.4474 86.0337 11.7932 83.905 11.7932C81.7745 11.7932 80.346 13.4474 80.346 15.5633C80.346 17.6792 81.7745 19.3333 83.905 19.3333C86.0337 19.3333 87.3226 17.6792 87.3226 15.5633M76.6754 15.5896C76.6754 11.25 80.1499 8.646 83.905 8.646C87.6876 8.646 90.9932 11.2764 90.9932 15.5345C90.9932 19.848 87.5735 22.4784 83.7912 22.4784C79.9811 22.4784 76.6754 19.848 76.6754 15.5896" fill="white"/>
<path fill-rule="evenodd" clip-rule="evenodd" d="M105.991 14.9937V22.3439H102.263V15.8064C102.263 15.3449 102.601 11.9279 99.9113 11.7935C98.5927 11.7117 96.2404 12.416 96.2404 15.9699V22.3439H92.5425V8.78076H95.9372L95.9482 10.6636C95.9482 10.6636 97.4788 8.646 100.333 8.646C103.947 8.646 105.991 11.25 105.991 14.9937" fill="white"/>
<path fill-rule="evenodd" clip-rule="evenodd" d="M119.618 11.5216C118.441 11.5216 117.936 12.0914 117.936 12.6613C117.936 13.5824 119.198 13.854 120.038 14.0175C122.533 14.5319 125.054 15.2653 125.054 18.1385C125.054 20.9326 122.673 22.4787 119.787 22.4787C116.565 22.4787 114.072 20.5814 113.903 17.7058H117.348C117.432 18.5185 117.993 19.5764 119.702 19.5764C121.13 19.5764 121.468 18.8455 121.468 18.2756C121.468 17.2707 120.487 16.9724 119.533 16.7559C117.882 16.4026 114.323 15.7534 114.323 12.6613C114.323 10.0022 116.958 8.646 119.675 8.646C122.812 8.646 124.885 10.4903 125.054 12.7694H121.607C121.495 12.3079 121.048 11.5216 119.618 11.5216" fill="white"/>
<path fill-rule="evenodd" clip-rule="evenodd" d="M136.381 15.5633C136.381 13.3106 135.12 11.9831 133.299 11.9831C131.59 11.9831 129.879 13.1758 129.879 15.5633C129.879 17.9487 131.59 19.1435 133.299 19.1435C135.12 19.1435 136.381 17.814 136.381 15.5633V15.5633ZM139.883 8.78076V27.7681H136.381V21.0141C135.485 21.9903 134.223 22.4784 132.765 22.4784C129.209 22.4784 126.238 19.6582 126.238 15.5632C126.238 11.4662 129.209 8.646 132.765 8.646C135.561 8.646 136.608 10.4625 136.608 10.4625L136.602 8.78076H139.883Z" fill="white"/>
<path fill-rule="evenodd" clip-rule="evenodd" d="M159.905 13.8542H166.208C165.788 12.2528 164.638 11.6035 163.238 11.6035C161.698 11.6035 160.464 12.4429 159.905 13.8542M169.906 16.5927H159.679C160.101 18.6553 161.837 19.4153 163.349 19.4153C165.255 19.4153 166.069 18.2756 166.069 18.2756H169.598C168.533 20.9877 165.984 22.4787 163.238 22.4787C159.455 22.4787 156.15 19.6848 156.15 15.4551C156.15 11.25 159.428 8.646 163.126 8.646C166.712 8.646 170.356 11.0598 169.906 16.5927" fill="white"/>
<path fill-rule="evenodd" clip-rule="evenodd" d="M174.791 13.8542H181.094C180.674 12.2528 179.524 11.6035 178.124 11.6035C176.584 11.6035 175.35 12.4429 174.791 13.8542M184.792 16.5927H174.567C174.987 18.6553 176.723 19.4153 178.235 19.4153C180.141 19.4153 180.955 18.2756 180.955 18.2756H184.484C183.419 20.9877 180.87 22.4787 178.124 22.4787C174.341 22.4787 171.036 19.6848 171.036 15.4551C171.036 11.25 174.314 8.646 178.012 8.646C181.598 8.646 185.242 11.0598 184.792 16.5927" fill="white"/>
<path fill-rule="evenodd" clip-rule="evenodd" d="M197.267 19.3069V22.3436H185.36V20.5527L192.113 11.8198H185.641V8.78076H196.988V10.5717L190.235 19.3069H197.267Z" fill="white"/>
<path fill-rule="evenodd" clip-rule="evenodd" d="M211.845 8.78076V20.7161V20.9877C211.845 24.6497 209.91 27.9053 205.119 27.9053C200.636 27.9053 198.2 25.056 198.2 22.9138H201.702C201.702 22.9138 202.233 24.7314 205.007 24.7314C207.362 24.7314 208.343 23.4282 208.343 21.5309V20.9611C207.724 21.6393 206.55 22.4787 204.448 22.4787C200.778 22.4787 198.48 19.9034 198.48 16.1331L198.451 8.78076H202.094V15.3183C202.094 17.1623 202.767 19.3336 205.092 19.3336C206.296 19.3336 208.286 18.7637 208.286 15.1548V8.78076H211.845Z" fill="white"/>
<path fill-rule="evenodd" clip-rule="evenodd" d="M36.1626 18.2723C36.1626 19.1181 36.4958 19.467 37.1141 19.467C37.5497 19.467 37.8327 19.4164 38.2454 19.2926L38.4761 22.0799C37.7048 22.3272 36.959 22.4774 36.0075 22.4774C33.8244 22.4774 32.4874 21.7817 32.4874 18.7693V3.35645H36.1626V18.2723Z" fill="white"/>
<path fill-rule="evenodd" clip-rule="evenodd" d="M75.0944 14.9937V22.3439H71.3665V15.8064C71.3665 13.9357 71.5629 11.5749 68.9848 11.7935C68.3142 11.8465 66.4639 12.1444 66.4639 15.9699V22.3439H62.7658V15.8064C62.7658 13.9357 62.9619 11.5749 60.3841 11.7935C59.711 11.8465 57.8632 12.1444 57.8632 15.9699V22.3439H54.165V8.78075H57.56L57.5631 10.6636C57.5631 10.6636 58.8605 8.64599 61.2805 8.64599C64.1966 8.64599 65.3411 10.8424 65.3411 10.8424C65.3411 10.8424 66.5967 8.61963 69.7992 8.61963C73.4405 8.61963 75.0944 11.2236 75.0944 14.9937" fill="white"/>
<path fill-rule="evenodd" clip-rule="evenodd" d="M141.455 16.131V8.78076H145.183V15.3183C145.183 15.7797 144.845 19.1967 147.535 19.3312C148.853 19.413 151.205 18.7086 151.205 15.1548V8.78076H154.904V22.3439H151.513L151.498 20.4611C151.498 20.4611 149.967 22.4787 147.113 22.4787C143.499 22.4787 141.455 19.8747 141.455 16.131" fill="white"/>
<path fill-rule="evenodd" clip-rule="evenodd" d="M6.92836 17.1856L14.4397 20.6583C15.3706 21.0889 16.0278 21.8116 16.3827 22.6406C17.2803 24.7399 16.0535 26.8869 14.1276 27.6591C12.2015 28.4309 10.1486 27.9342 9.21523 25.7511L5.94631 18.0866C5.693 17.4925 6.32934 16.9087 6.92836 17.1856" fill="#FFC233"/>
<path fill-rule="evenodd" clip-rule="evenodd" d="M7.37953 14.9376L15.1331 12.0066C17.71 11.0325 20.5249 12.8756 20.487 15.5536C20.4864 15.5886 20.4858 15.6235 20.4849 15.6588C20.4292 18.2666 17.6926 20.0194 15.1723 19.0968L7.38687 16.2473C6.76582 16.0201 6.76123 15.1713 7.37953 14.9376" fill="#FFC233"/>
<path fill-rule="evenodd" clip-rule="evenodd" d="M6.9449 13.9224L14.567 10.6837C17.0998 9.60736 17.7426 6.37695 15.7589 4.51043C15.7329 4.48585 15.7069 4.46156 15.6806 4.43728C13.7357 2.63207 10.5207 3.26767 9.41349 5.64539L5.99314 12.9915C5.72024 13.5773 6.33701 14.1806 6.9449 13.9224" fill="#FFC233"/>
<path fill-rule="evenodd" clip-rule="evenodd" d="M4.98349 12.6426L7.75465 5.04415C8.09822 4.102 8.03458 3.1412 7.67939 2.3122C6.77994 0.21378 4.34409 -0.463579 2.41853 0.309741C0.493284 1.08336 -0.594621 2.84029 0.340622 5.02253L3.63095 12.6787C3.8861 13.272 4.76261 13.2486 4.98349 12.6426" fill="#FFC233"/>
</svg>
