<?xml version="1.0" encoding="utf-8"?>
<!-- Generator: Adobe Illustrator 26.0.3, SVG Export Plug-In . SVG Version: 6.00 Build 0)  -->
<svg version="1.0" id="katman_1" xmlns="http://www.w3.org/2000/svg" xmlns:xlink="http://www.w3.org/1999/xlink" x="0px" y="0px"
	 viewBox="0 0 600 450" style="enable-background:new 0 0 600 450;" xml:space="preserve">
<style type="text/css">
	.st0{clip-path:url(#SVGID_00000144328905965497708830000005542689296226882696_);}
	.st1{fill:#FDDD36;}
</style>
<g>
	<defs>
		<rect id="SVGID_1_" x="84.7" y="159.1" width="430.9" height="132.6"/>
	</defs>
	<clipPath id="SVGID_00000005256741080245705560000010515406565698169273_">
		<use xlink:href="#SVGID_1_"  style="overflow:visible;"/>
	</clipPath>
	<g style="clip-path:url(#SVGID_00000005256741080245705560000010515406565698169273_);">
		<path class="st1" d="M84.7,227.2v-3.6c4.4,0,8.7-1.7,11.8-4.9c3.1-3.1,4.9-7.3,4.9-11.7h3.3c0,4.4,1.8,8.6,4.9,11.7
			c3.1,3.1,7.4,4.9,11.8,4.9v3.6c-4.4,0-8.7,1.7-11.8,4.9c-3.1,3.1-4.9,7.3-4.9,11.7h-3.3c0-4.4-1.8-8.6-4.9-11.7
			C93.3,229,89.1,227.2,84.7,227.2z M101.4,200.8h28.7c14,0,24,9.9,24,24.5c0,14.6-10,24.5-24,24.5h-28.7v41.8h12v-31.2h16.7
			c20.2,0,36.1-15.8,36.1-35.1c0-19.4-15.9-35.1-36.1-35.1h-28.7V200.8z M209.3,190.1c10.5,0,19.9,5.3,25.8,13.7v-11.5h12v66.3h-12
			V247c-6,8.4-15.4,13.7-25.8,13.7c-19.8,0-36.5-15.5-36.5-35.3C172.8,205.6,189.5,190.1,209.3,190.1z M209.3,250
			c15.5,0,25.8-10.6,25.8-24.7c0-14.2-10.1-24.7-25.8-24.7c-13.9,0-24.4,9.9-24.4,24.7C184.8,240.1,195.4,250,209.3,250z
			 M291.5,190.1c10.6,0,19.9,5.3,25.8,13.7v-44.7h12v99.4h-12V247c-5.9,8.4-15.2,13.7-25.8,13.7c-19.8,0-36.5-15.5-36.5-35.3
			C255.1,205.6,271.7,190.1,291.5,190.1z M291.5,250c15.6,0,25.8-10.5,25.8-24.7c0-14.2-10.2-24.7-25.8-24.7
			c-13.9,0-24.4,9.9-24.4,24.7C267.1,240.1,277.6,250,291.5,250z M375.1,190.1c10.6,0,19.9,5.3,25.8,13.7v-44.7h12v99.4h-12V247
			c-5.9,8.4-15.2,13.7-25.8,13.7c-19.8,0-36.5-15.5-36.5-35.3C338.7,205.6,355.3,190.1,375.1,190.1z M375.1,250
			c15.6,0,25.8-10.5,25.8-24.7c0-14.2-10.2-24.7-25.8-24.7c-13.9,0-24.4,9.9-24.4,24.7C350.7,240.1,361.2,250,375.1,250z
			 M424.9,258.5v-99.4h12v99.4H424.9z M481.4,190.2c23.1,0,34.2,17.9,34.2,39.8h-57.7c1.9,12.9,11.5,21.2,23.5,21.2
			c8.3,0,14.7-3.7,19.5-11h13c-4.5,10.2-16.4,20.3-32.4,20.3c-20.2,0-35.8-16-35.8-35.1C445.6,206.3,461.2,190.2,481.4,190.2
			L481.4,190.2z M503.6,220.7c0-10.9-9.3-21.2-22.2-21.2c-12,0-21.6,8.4-23.5,21.2H503.6z"/>
	</g>
</g>
</svg>
